<?xml version="1.0" encoding="UTF-8"?>
<svg width="30px" height="26px" viewBox="0 0 30 26" version="1.1" xmlns="http://www.w3.org/2000/svg" xmlns:xlink="http://www.w3.org/1999/xlink">
    <!-- Generator: sketchtool 50.2 (55047) - http://www.bohemiancoding.com/sketch -->
    <title>AA52BA70-EFD9-40A7-88A2-5079699DBA78</title>
    <desc>Created with sketchtool.</desc>
    <defs></defs>
    <g id="Page-1" stroke="none" stroke-width="1" fill="none" fill-rule="evenodd">
        <g id="Crowdpac_MarketingLanding_Design1" transform="translate(-1220.000000, -2344.000000)" fill="#C6C6C6">
            <g id="TESTIMONIALS" transform="translate(0.000000, 2031.000000)">
                <path d="M1250,326.000277 C1249.98726,325.510179 1249.7962,325.020095 1249.51087,324.700128 L1239.72826,313.648865 C1238.91813,312.82106 1237.72589,312.805783 1236.95652,313.486346 C1236.18715,314.166909 1236.11072,315.482269 1236.79348,316.249162 L1243.70261,324.050054 L1221.95652,324.050054 C1220.87639,324.050054 1220,324.923624 1220,326.000277 C1220,327.07693 1220.87639,327.9505 1221.95652,327.9505 L1243.70261,327.9505 L1236.79348,335.751392 C1236.11072,336.518284 1236.20754,337.813362 1236.95652,338.514207 C1237.73861,339.245541 1239.0455,339.118575 1239.72826,338.351689 L1249.51087,327.300425 C1249.85734,326.911902 1249.99491,326.523392 1250,326.000277 Z" id="arrow_next"></path>
            </g>
        </g>
    </g>
</svg>