<?xml version="1.0" encoding="UTF-8"?>
<svg width="30px" height="26px" viewBox="0 0 30 26" version="1.1" xmlns="http://www.w3.org/2000/svg" xmlns:xlink="http://www.w3.org/1999/xlink">
    <!-- Generator: sketchtool 50.2 (55047) - http://www.bohemiancoding.com/sketch -->
    <title>343FED3F-BF57-407C-96DF-D6A321FB5A9B</title>
    <desc>Created with sketchtool.</desc>
    <defs></defs>
    <g id="Page-1" stroke="none" stroke-width="1" fill="none" fill-rule="evenodd">
        <g id="Crowdpac_MarketingLanding_Design1" transform="translate(-198.000000, -2339.000000)" fill="#C6C6C6">
            <g id="TESTIMONIALS" transform="translate(0.000000, 2031.000000)">
                <path d="M228,321.000277 C227.987263,320.510179 227.796196,320.020095 227.51087,319.700128 L217.728261,308.648865 C216.91813,307.82106 215.725891,307.805783 214.956522,308.486346 C214.187152,309.166909 214.110717,310.482269 214.793478,311.249162 L221.702609,319.050054 L199.956522,319.050054 C198.876391,319.050054 198,319.923624 198,321.000277 C198,322.07693 198.876391,322.9505 199.956522,322.9505 L221.702609,322.9505 L214.793478,330.751392 C214.110717,331.518284 214.207539,332.813362 214.956522,333.514207 C215.738609,334.245541 217.0455,334.118575 217.728261,333.351689 L227.51087,322.300425 C227.857337,321.911902 227.994907,321.523392 228,321.000277 Z" id="arrow_back" transform="translate(213.000000, 321.000000) scale(-1, 1) translate(-213.000000, -321.000000) "></path>
            </g>
        </g>
    </g>
</svg>