<svg width="35" height="36" xmlns="http://www.w3.org/2000/svg">
  <path d="M34 3.2h-4.4V1.7c0-.5-.4-1-1-1H7.1a1 1 0 00-1 1v1.5H1.7a1 1 0 00-1 1 22 22 0 003.3 12c2.1 3.2 4.9 5 8 5.1.6.8 1.3 1.4 2.1 1.9v4.5h-1.7c-2 0-3.7 1.6-3.7 3.7V33a1 1 0 00-1 1c0 .6.4 1 1 1h18.2c.6 0 1-.4 1-1 0-.5-.4-1-1-1v-1.6c0-2-1.6-3.7-3.7-3.7h-1.6v-4.5c.7-.5 1.5-1 2.1-1.9 3-.1 6-2 8-5.1C33.8 13 35 8.7 35 4.2c0-.6-.5-1-1-1zM5.7 15a19.7 19.7 0 01-3-9.9h3.5a33.1 33.1 0 004 13.7c-1.7-.7-3.3-2-4.5-3.8zM18 17.9a6.6 6.6 0 010-13.1c3.5 0 6.5 3 6.5 6.5 0 3.6-2.9 6.6-6.5 6.6zM30 15a9.7 9.7 0 01-4.5 3.8l.9-1.5C28 14 29 9.8 29.5 5.2H33c-.2 3.7-1.2 7.2-3 9.9z" fill="#aaa"/>
  <path d="M20 11c-.6-.5-1.3-.7-2-.7-.4 0-.6 0-.8-.2a.5.5 0 010-.7c.3-.4 1.1-.4 1.4 0v.2l.2.1h2c0-.5-.2-.9-.5-1.2-.3-.3-.7-.6-1.2-.7l-.1-.3v-.8h-2.1v.7c0 .2-.1.2-.2.3l-1 .5c-.6.5-1 1.3-.7 2 .2.6.7 1 1.2 1.3.5.3 1 .4 1.7.4.2 0 .4 0 .6.2.3.3.3.7 0 .8a.9.9 0 01-1.4-.4h-2.2c0 .5.2.8.4 1.2.4.4.8.7 1.3.9.2 0 .3 0 .2.2v1h2.1v-1c0-.1 0-.2.2-.2.3-.2.7-.3 1-.6.3-.3.6-.7.6-1.2.2-.8-.2-1.4-.7-1.8z" fill="#aaa"/>
</svg>
