<svg width="27" height="35" fill="none" xmlns="http://www.w3.org/2000/svg">
  <path d="M2 15.6c-.3.2-.4.6-.3 1.1 0 .6.7 3.4 1.2 4.5.5 1 1.4 2 2 2.4l.3.5.7 1.3v7.7s.8 1.8 7 1.8c6.1 0 6.5-2 6.5-2l-.6-8.8v-1.3l.4-.6c.4-.5 6.9-8 7.3-9.1.3-.8.1-1-.1-1.3-.4-.6-2.5-6-4.4-7.2-.8-.5-1 0-1.2 0l-3 1.2c-.4.2-2 1-3 1.2-1 .2-2.1.3-2.3.6-.2.3-.3 1.8.4 2.3.7.5 2 .8 3 .9.9 0 3-1 3.3-1.3h.3s.3 1.8.8 2.3c0 0-2.4.5-3 1-.8.5-1.4.6-2.6 2.5a159 159 0 01-3.7 5.3c-.5.6-1.2.6-.5-.3l2.2-3.1c.6-1 1.5-1.9 1.6-2.4 0-.5-.4-.7-1.2-.7-1 0-2.1.3-3 .6l-1.5.8L6.8 17c-.5.4-1 1.1-1.5.6l-2-1.4c-.6-.5-1-.9-1.3-.7z" fill="#aaa"/>
  <path d="M1.4 10.8C1 11 0 12 .8 12.8c.8 1 2.2 2.3 2.9 2.7.7.4 1.7 1.2 2.2 1.1.4 0 .7-.4.8-.6.2-.2.7-.6.7-.8 0-.3-.4-.9-.6-1.2a15.8 15.8 0 00-3.1-3.6c-.7-.6-1.5-.3-2.3.4zM5.3 7c-1 .6-1.4 1.7-.8 2.4a104 104 0 013.3 4.2c.4.4 1.3 1.2 2.4.6 1.2-.7 1.9-1.2 1.8-2-.2-.6-.7-1.2-1.2-1.8a60 60 0 01-2-2.4l-.4-.6c-.4-.5-1.5-1.6-3-.5zM10 3.2c-.7.5-1.3 2-.7 2.9.5 1 1 1.7 1.5 2.1.5.4.6.3.7-.3 0-.7.2-1.2.7-1.3L14 6c.3-.2 1.1-.4.3-1l-1.1-1.4c-.3-.3-.5-.9-.7-1-.3-.2-1.4-.1-2.4.6zM15.7.6c-.8.3-2 1.3-1.4 2.5.7 1.1 1 2 2 2s1.2-.1 1.7-.3c.4-.1 2.1-.8 1.5-1.7l-1-1.6c-.3-.3-1.5-1.4-2.8-.9zM13.1 12.8c-.2.3-.4.6.3.6h1.3c.4 0 .5-.4.8-.6l.8-.6c.3-.1-.6-.5-1-.7l-1.6-.2c-.3 0 0 .7-.2 1-.1.3-.4.5-.4.5z" fill="#aaa"/>
</svg>
