<svg width="35" height="31" fill="none" xmlns="http://www.w3.org/2000/svg">
  <path d="M19 0a15 15 0 00-9.5 3.4l.6.5c1 1.1 1.7 2.5 1.7 4v9.5c.2.2 1 1.3 2 1.3.4 0 1 .2 1.4.4l.4.2v.1c.1.2.3.6.9.9l.3.2 1 .6c-.4.4-.9 1-.7 1.8.1 1 1.5 2.2 2 2.5.2.2.2 2 0 2.4l-.1.4c-2 0-3.8-.4-5.5-1.2-.2.8-.5 1.4-.9 2a15.1 15.1 0 0021.6-13.7C34.2 6.8 27.4 0 19 0zm11.3 16.2l-.3.9c-.4.2-.8 2.5-.8 2.6a6 6 0 001 2 13 13 0 01-8.2 6.2v-.1l.2-.1.7-.5.7-.7 2-1.8a5 5 0 01.7-1.3c.4-.4 0-1 0-1.2-.3-.4-1.3-.5-1.4-.4-.1 0-.7-.3-.8-.5 0-.3-.8-1-1-1-.1 0-.5-.1-.7-.4-.4-.4-1.4-.6-1.8-.6a2 2 0 01-.9-.2c-.3-.1-.8 0-1.3.3h-.1l-1-.1-.1-.5-.1-.5c-.1-.2-.4-.3-.8-.4h-.1c.2-.4.3-.7.2-1H16c-.3-.2-.5 0-.8.3l-.3.2c-.1 0-.4 0-.9-.3l.3-1.1v-.4l1-.1a5.5 5.5 0 001.1-.2l.3.4c.2.2.3.5.6.4.4 0 .4-.5.3-.7v-.2l.6-.7c.3-.2.8-.8.7-1.2l.7-.5.2-.2h.2c.2-.2.5-.4.5-.8l.8-.2h.2c.3 0 .5-.1.6-.3v-.6l-.1-.1c-.1-.2 0-.4.1-.5l.6-.1.8-.2.4-.4-.2-.5v-.2l-.6-.6-.2-.6-.1-.3c0-.2-.1-.3-.3-.3H22c0-.1 0-.3-.2-.4l-.3-.3a8 8 0 00-.5-.5l-.4-.2c-.3 0-.5.4-.7.7-.5.7-.4 1-.2 1.1 0 .3-.2.3-.2.4-.2 0-.4.1-.5.4V8v-.3l-.5-.1-1.1-.6v-.6l1.3-.9a8 8 0 001.4-.8c.3-.2.3-.4.2-.5 0-.3-.4-.5-.8-.6-.2-.4-.5-.4-.8-.4h-.5C17.4 3 16.6 3 16 3h-1.2l-.1-.1a13.2 13.2 0 019.1.2l.2.5c0 .2.5 1 .5 1.4V6.4c.2.3 1 1.3 1.3 1.3.3 0 .5-.2.7-.4.1-.2.3-.5.7-.7.2-.2.6-.3 1.2-.3l1.1 1.3-.2.2c-.2.2-.7.7-.6 1.2 0 .5.5 1 1 1.3.6.3.6.8.6.8 0 .1 0 .2.7.6l-.4.5c-.4 0-.4 1-.4 1 0 .3.4.8.7 1 .1.2.2.2.3.2.2 0 .5-.2.6-.4v.8l-1 .4c-.2.1-.3.4-.6 1z" fill="#aaa"/>
  <path d="M10 8c0-1-.4-2-1.2-2.7A4 4 0 002 8v12.2a6 6 0 004 10.5 6 6 0 006-6 6 6 0 00-2-4.6V8zm.2 16.8c0 2.3-1.9 4.1-4.2 4.1A4.1 4.1 0 012 24.8c0-1.4.6-2.6 1.7-3.4.2-.2.4-.4.4-.7V8c0-1.1.9-2 2-2a2.1 2.1 0 012.1 2v12.7c0 .3.2.6.4.8 1 .7 1.7 2 1.7 3.3z" fill="#aaa"/>
  <path d="M7.7 22.5c-.6-.4-1-1.1-1-1.8V9.9c0-.4-.3-.6-.7-.6-.3 0-.6.3-.6.6v10.8c0 .7-.4 1.4-1 1.8a2.8 2.8 0 001.6 5c1.6 0 2.8-1.2 2.8-2.7 0-.9-.4-1.7-1.1-2.3z" fill="#aaa"/>
</svg>
