<svg width="51" height="34" fill="none" xmlns="http://www.w3.org/2000/svg">
    <path d="M28.4 0h-.3l-9.6 4.5c-.4.2-.6.6-.4 1l1 2c.1.4.6.6 1 .4l.3-.1v-.1L28 4.3l1.5-.7.3-.1c.4-.2.6-.7.4-1.1l-.9-2a.9.9 0 00-.8-.4zm1 5l-7.8 3.6.6 1.2.1.2 2 4.5.2.4.8 1.6 7.7-3.6L29.3 5zm-8 6.1C17.2 13 12.8 14.8 9 16.2l-7.2 3c-.7.2-1.3.8-1.6 1.3-.3.6-.4 1.1-.2 1.6.5 1 2 1.5 3.4.9L6 22A19758.2 19758.2 0 0023 14.7L21.4 11zm13.4 2.5a1 1 0 00-.3 0L24.9 18c-.4.2-.6.7-.4 1.1l1 2c.1.4.6.5 1 .3l9.6-4.3c.4-.2.6-.7.4-1.1l-.9-2a.8.8 0 00-.8-.4zM18.3 25c-1 0-1.8.8-1.8 1.8v1.3h29.3V27c0-1-.8-1.8-1.8-1.8H18.3zM14 29.5c-1 0-1.8.8-1.8 1.8v.2c0 1 .8 1.8 1.8 1.8h34.3c1 0 1.8-.8 1.8-1.8v-.2c0-1-.8-1.8-1.8-1.8H14z" fill="#aaa" />
</svg>