<svg xmlns="http://www.w3.org/2000/svg" width="80" height="80" viewBox="0 0 48 48"><g fill="currentColor"><defs><linearGradient id="a" x1="0%" y1="0%" x2="100%" y2="0%"><stop offset="0%" stop-color="#f83600"/><stop offset="100%" stop-color="#fe8c00"/></linearGradient></defs><g fill="url(#a)"><path d="M42.57 17.18a.974.974 0 00-.92-.11l-6.69 2.51A2.996 2.996 0 0032 17H8c-1.65 0-3 1.35-3 3v12c0 1.65 1.35 3 3 3h24c1.51 0 2.75-1.12 2.96-2.57l6.69 2.51c.11.04.23.06.35.06.2 0 .4-.06.57-.18.27-.19.43-.49.43-.82V18c0-.33-.16-.63-.43-.82zM33 32c0 .55-.45 1-1 1H8c-.55 0-1-.45-1-1V20c0-.55.45-1 1-1h24c.55 0 1 .45 1 1v12zm8 .56l-6-2.25V21.7l6-2.25v13.11z"/><path d="M30 21h-2c-.55 0-1 .45-1 1s.45 1 1 1h2c.55 0 1-.45 1-1s-.45-1-1-1z"/></g></g></svg>