<svg xmlns="http://www.w3.org/2000/svg" width="80" height="80" viewBox="0 0 73 125"><g fill="currentColor"><defs><linearGradient id="a" x1="0%" y1="0%" x2="100%" y2="0%"><stop offset="0%" stop-color="#f83600"/><stop offset="100%" stop-color="#fe8c00"/></linearGradient></defs><path d="M3704.84 8075.874c.007.074.01.15.01.226v79.638a2.263 2.263 0 01-2.262 2.262h-68.326a2.263 2.263 0 01-2.262-2.262v-95.476a2.263 2.263 0 012.262-2.262h52.49c.075 0 .15.004.225.011.055.006.109.015.162.024.02.004.039.005.058.01.065.012.128.029.19.047l.024.006c.063.02.125.042.187.067l.02.008c.058.024.114.05.17.08l.031.015c.05.026.097.056.144.086l.046.028c.043.028.083.06.123.09.018.015.037.028.056.042.041.035.08.072.119.108l.044.04 15.837 15.838.04.044c.037.039.074.077.108.119.015.018.028.037.042.056.03.04.062.08.09.122l.029.047c.03.047.06.094.086.144l.015.032c.029.055.056.11.08.168l.008.021c.024.061.047.124.066.187l.006.023c.019.063.035.126.048.191l.01.058c.008.053.018.107.023.162zm-15.826-10.15v8.113h8.112l-8.112-8.112zm-52.49 87.751h63.802v-75.113h-13.575a2.263 2.263 0 01-2.262-2.262v-13.575h-47.964v90.95zm50.878-46.434h-40a2.526 2.526 0 01-2.551-2.551c0-1.429 1.122-2.45 2.55-2.45h40c1.43 0 2.45 1.021 2.45 2.45 0 1.428-1.02 2.55-2.45 2.55zm0-12h-40a2.526 2.526 0 01-2.551-2.551c0-1.429 1.122-2.45 2.55-2.45h40c1.43 0 2.45 1.021 2.45 2.45 0 1.428-1.02 2.55-2.45 2.55zm0 23.939h-40c-1.429 0-2.551-1.02-2.551-2.45a2.526 2.526 0 012.55-2.55h40c1.43 0 2.45 1.122 2.45 2.55 0 1.43-1.02 2.45-2.45 2.45zm-3.649 20.104c.24-.11.532-.267.974-.517-.053.03.944-.54 1.246-.708.501-.28.933-.506 1.348-.703.985-.47 1.816-.743 2.54-.793.63-.043 1.152.486 1.139 1.105v1.202c0 .577-.441 1.041-1.011 1.09-.48.04-1.174.324-2.105.838a28.86 28.86 0 00-.701.403c-.184.108-.928.555-1.11.661-.407.24-.701.4-.95.516-.71.328-1.011.462-1.402.616-.93.367-1.72.553-2.53.553-1.161 0-2.1-.373-2.757-1.115-.55-.622-.42-1.54.137-3.058.059-.161.122-.327.2-.529l.061-.157c-2.196 2.028-5.797 5.586-8.094 7.95-.312.326-.74.506-1.183.506-1.266 0-1.955-1.282-1.55-2.317l2.848-7.704c.119-.304-.2-.578-.44-.42l-2.118 1.461c-.51.336-1.189.181-1.505-.337l-.627-1.014c-.31-.51-.165-1.181.32-1.499l2.008-1.388c3.129-2.049 6.768 1.083 5.467 4.422l-.143.437c3.842-3.723 6.582-6.025 7.496-6.081 1.31-.077 1.806.903 1.729 2.351a8.27 8.27 0 01-.157 1.174c-.047.236-.149.676-.148.672-.055.43-.225.924-.527 1.626l-.139.318c-.41.926-.467 1.056-.536 1.281.48-.071 1.063-.305 2.22-.842z" transform="translate(-3632 -8058)" fill="url(#a)" fill-rule="nonzero"/></g></svg>