<svg width="91" height="114" viewBox="0 0 91 114" fill="none" xmlns="http://www.w3.org/2000/svg">
<path d="M85.3125 74.9902H6.39844C5.41681 74.9902 4.62109 74.1926 4.62109 73.209V17.9902C4.62109 17.0064 5.41681 16.209 6.39844 16.209H85.3125C86.294 16.209 87.0898 17.0064 87.0898 17.9902V73.209C87.0898 74.1926 86.294 74.9902 85.3125 74.9902ZM8.17578 71.4277H83.5352V19.7715H8.17578V71.4277Z" fill="black"/>
<path d="M46.211 55.2188C45.797 55.2188 45.3829 55.0743 45.0493 54.7856L5.94772 20.9418C5.20479 20.2988 5.12267 19.1739 5.76429 18.4295C6.40592 17.685 7.52831 17.6027 8.27106 18.2457L46.211 51.084L84.1508 18.2457C84.8938 17.603 86.0162 17.6852 86.6576 18.4295C87.299 19.1739 87.2169 20.299 86.4742 20.9418L47.3726 54.7856C47.039 55.0743 46.6249 55.2188 46.211 55.2188Z" fill="black"/>
</svg>
