<svg width="29" height="30" fill="none" xmlns="http://www.w3.org/2000/svg">
  <path d="M28.3 1c0-.9-1.1-1.3-1.7-.7C21.4 5.6 13.4 5.4 12.9 11c-.1 1.2.3 2.4 1.1 3.5 3.8-3.8 7.9-5.1 8-5.2h.2a24 24 0 00-9.8 11.2 31.4 31.4 0 00-7.8-8.3c.1.1 3.2.9 6 3.7.4-.7.6-1.3.5-2.1-.3-4.1-6.1-4.1-9.7-8-.5-.5-1.3-.2-1.3.5-.3 3.6 0 9.7 2.6 11.5 1.4 1 3.6.9 5.3.1a28 28 0 013.6 5l-.5 3.1a20 20 0 00-9.5 2.5c-.6.3-.2 1.2.4 1.1a104 104 0 0120.2 0c.6 0 1-.8.3-1.2A20 20 0 0013 26c.3-3.8 1.9-7 3.7-9.3 2.4 1.3 5.5 1.7 7.6.2C28 14.4 28.6 6 28.3 1z" fill="#aaa"/>
</svg>
