<svg xmlns="http://www.w3.org/2000/svg" width="30" height="30" viewBox="0 0 351 347">
  <g fill="currentColor">
    <path d="M8.7 48.3c23.7-5.5 44.7-9.1 65.7-11.5 21-2.4 41.9-3.7 65.6-4.5 32.1-1 57.7-2 82.3-5.8a311.2 311.2 0 0078.1-23.2L308 0l2 8.1c10.1 40.5 15.3 77.7 20.7 116.7l2.4 17-13.8 2.8-2.5-17.8c-5-36-9.8-70.4-18.5-107.3a316.1 316.1 0 01-73.8 20.9c-25.7 4-51.5 4.9-84 6-23.4.8-44 2-64.5 4.4a549.3 549.3 0 00-57.3 9.7c5.2 24.4 7.6 47.8 9.4 71.4l-9.1.4-5 .2c-1.9-25.1-4.6-50-10.5-75.8l-1.6-6.9 6.8-1.5z"/>
    <path d="M168.3 138.1l-1.5-23.1a31.4 31.4 0 01-16.5-8.3c-3.6-4-5.6-8.9-6-14.9-.4-6 1.2-11.2 4.7-15.6 3.6-4.3 8.5-7 14.8-8.1l-.3-5.5 8-.5.3 5.5c5.9.3 10.7 2 14.4 5.1 3.7 3.1 6.1 7.3 7.5 12.8l-13.8 2.7c-1.1-4.3-3.5-7.1-7.2-8.4l1.4 21.6c9 1.8 15.2 4.6 18.6 8.2 3.4 3.6 5.4 8.4 5.7 14.3.4 6.6-1.2 12.4-5 17.2-3.7 4.8-9.2 8-16.3 9.5l.7 10.3-8 .5-.6-10.1a26.2 26.2 0 01-16-6.1 29.8 29.8 0 01-8.7-16.3l14.3-2.5a18 18 0 003.8 7.4c1.7 2 3.6 3.5 5.7 4.3zm-3.7-57.9c-2.1.9-3.8 2.2-5 4.1a9.3 9.3 0 00-1.5 6 9 9 0 002.1 5.3c1.3 1.6 3.2 2.8 5.6 3.7l-1.2-19.1zm11.7 58.2a11.2 11.2 0 008.6-11.7c-.2-2.5-1-4.5-2.6-6.2-1.6-1.7-4-2.9-7.4-3.6l1.4 21.5zM71.6 86.4a28 28 0 0132.8 22.8A28 28 0 0181.6 142a28 28 0 01-32.8-22.8 28 28 0 0122.8-32.8zm13.1 16.2a14 14 0 00-10.6-2.3c-3.8.7-7 2.9-9.1 5.8a14 14 0 00-2.3 10.6c.7 3.8 2.9 7 5.8 9.1a14.3 14.3 0 0019.7-3.5c2.1-3 3-6.7 2.3-10.6-.6-3.8-2.8-7-5.8-9.1zM250.4 68.5a28 28 0 0132.8 22.8 28 28 0 01-22.8 32.8 28 28 0 01-32.8-22.8 28 28 0 0122.8-32.8zm13 16.3a14 14 0 00-10.6-2.3c-3.8.7-7 2.9-9.1 5.8a14 14 0 00-2.3 10.6c.7 3.8 2.9 7 5.8 9.1 3 2.1 6.7 3 10.6 2.3 3.8-.7 7-2.9 9.1-5.8 2.1-3 3-6.7 2.3-10.6-.6-3.9-2.8-7.1-5.8-9.1z"/>
    <path d="M19.2 148.2c26.4-1.3 49.6-1.1 72.4.3 22.9 1.4 45.6 4.1 71.1 7.9 34.6 5.1 62.1 9 89.1 9.7 27 .7 54-1.9 88-9.8l8.8-2 .6 9c3 45.2 1.3 86-.4 128.8l-1.5 39.2-.2 6.3-6.2 1.1a433.7 433.7 0 01-105.8 7.4c-32-2-63.6-8.4-103.4-18.3a423.4 423.4 0 00-61-11.2 391.3 391.3 0 00-61.8-.8l-8.9.5.9-8.9c1.4-13.7 2.8-26 4.2-38 4.4-37.7 8.6-73.9 6.7-113.1l-.4-7.6 7.8-.5zm71.5 15.7a625.7 625.7 0 00-63.2-.7c1.1 37.6-2.9 72.1-7.1 107.9l-3.3 29c20.1-.8 37.7-.4 55.2 1.3 20.1 2 39.9 5.8 63.1 11.6 39 9.7 69.7 15.9 100.7 17.9 29.3 1.9 58.9 0 96.1-6.2l1.3-33.1c1.6-39.4 3.1-77.2.9-118.3a349.7 349.7 0 01-83 8.2c-28.3-.7-56.1-4.7-91-9.8a782 782 0 00-69.7-7.8z"/>
    <path d="M172.6 275.1l2.9-25a33.3 33.3 0 01-16-12.1 25.9 25.9 0 01-3.6-17.1c.8-6.5 3.4-11.8 8.1-15.7 4.6-4 10.4-5.9 17.3-5.8l.7-5.9 8.6 1-.7 5.9c6.2 1.5 11 4.2 14.4 8.2 3.3 4 5.2 9 5.5 15.1l-15.3.2c-.4-4.8-2.4-8.3-6.1-10.4l-2.7 23.3c9.3 3.7 15.4 7.8 18.4 12.3 3 4.5 4.1 10 3.4 16.5-.8 7.2-3.7 13-8.6 17.4a29 29 0 01-19.2 7l-1.3 11.2-8.6-1 1.3-10.9a27.6 27.6 0 01-15.9-9.6 32 32 0 01-6.1-19.1l15.8.1c.3 3.3 1.2 6.1 2.6 8.6 1.3 2.6 3.1 4.5 5.1 5.8zm7.3-62.7a11 11 0 00-8.9 9.5 11 11 0 001.2 6.1 13 13 0 005.3 5.1l2.4-20.7zm1.3 64.5c3.1-.2 5.6-1.3 7.8-3.3 2.1-2 3.4-4.5 3.7-7.5.3-2.7-.2-5-1.6-7.2a15 15 0 00-7.2-5.3l-2.7 23.3zM79.2 201.1c8.5 0 16.2 3.4 21.7 9a30.4 30.4 0 010 43.4 30.4 30.4 0 01-43.4 0 30.4 30.4 0 010-43.4c5.5-5.5 13.2-9 21.7-9zM90.1 221a15.4 15.4 0 10-21.8 21.9A15.4 15.4 0 0090 221zM273.8 216.5c8.5 0 16.2 3.4 21.7 9a30.4 30.4 0 010 43.4 30.4 30.4 0 01-43.4 0 30.4 30.4 0 010-43.4c5.6-5.6 13.2-9 21.7-9zm10.9 19.9a15.4 15.4 0 10-21.8 21.9 15.4 15.4 0 0021.8-21.9z"/>
  </g>
</svg>
