<svg width="38" height="35" fill="none" xmlns="http://www.w3.org/2000/svg">
  <path d="M38 1.4c0-.8-.6-1.4-1.4-1.4h-5.8a1.4 1.4 0 100 2.8h2.4l-4 4a10.7 10.7 0 00-12.3-.7c-1.7-1.2-3.8-2-6.1-2a10.8 10.8 0 00-1.5 21.5v1.6H6a1.4 1.4 0 100 2.9h3.4v3a1.4 1.4 0 102.9 0v-3h3.4a1.4 1.4 0 000-2.9h-3.4v-1.6c1.5-.2 2.9-.7 4.1-1.5 1.8 1.2 4 2 6.2 2a10.8 10.8 0 008.6-17.2l4-4v2.4a1.4 1.4 0 102.9 0V1.5zm-21.5 19a8 8 0 01-.5-.6l1.4-.6a8 8 0 01-1 1.2zm1.8-3.2l-3 1.2-.3-.6 3.5-1.5c0 .3 0 .6-.2 1zm.3-1.3l-3.7 1.5-.2-.7 4-1.6-.1.8zm0-1.3l-4 1.6v-.7l4-1.6v.7zm0-1.1l-4 1.5v-.8l3.8-1.4.1.7zm-.4-1.1l-3.4 1.4c0-.3 0-.6.2-.9l3-1.2.2.7zm-2.8 6.4l2.7-1-.4.9-2 .8a8 8 0 01-.3-.7zm2.4-7.5l-2.6 1 .4-.9 1.8-.7.4.6zm-1.8-.5l.8-1 .4.6-1.2.4zM2.8 15A8 8 0 0114.6 8a10.7 10.7 0 00-.5 14c-1 .5-2.1.8-3.3.8a8 8 0 01-8-7.9zm19.7 8.3c-1.4 0-2.7-.3-3.9-1a10.7 10.7 0 00.5-14 8 8 0 113.4 15z" fill="#aaa"/>
</svg>
