<svg width="28" height="21" viewBox="0 0 21 14" fill="none" xmlns="http://www.w3.org/2000/svg">
  <path d="M10 1.4h2c.2 0 .4-.1.4-.5V.5H9.6V1c0 .4.2.5.5.5z" fill="#aaa"/>
  <path d="M20.2.9H20V.7c0-.2 0-.3-.2-.3h-.3l-.2-.2h-.1c-.1 0-.2 0-.3.2h-6.2v.5c0 .5-.3.7-.7.7h-2c-.4 0-.6-.2-.6-.7V.4H3V.1L2.9 0h-.2l-.4.4H2c-.3 0-.4.1-.4.4v1.7h.7V.9h.3v1.6h.4V.9h.3v1.6h.4V.9h.2v1.6h.5V.9h.2v1.6H5V.9h.2v1.6h.4V.9H6v1.6h14.3V.9zM1.5 2.8l-.2.2c-.2 0-.2.2-.2.3 0 .2.1.4.5.4.9 0 1.4.7 1.4 1.5 0 .5-.2 1-.5 1.4l-.6 1c-.4.7-1.7 2.7-1.9 3.7l.1.6.7.4h.5l-.2.3.1.3 3.9.5c.2 0 .3 0 .3-.2V13h.3c.3 0 .3-.3.3-.5-.1-.4.1-1.2.5-1.3.3-.1.3-.3.2-.4 0-.6.2-1.3.7-1.5.2 0 .2-.3.2-.4-.1-.3 0-.7.2-1 .4-.6.8-.8 1.2-.5.2.1.6.3 1 .3h3.8c.3 0 .3-.3.2-.5l-.1-1v-.9c0-.5.3-.7.7-.7h4.8c.5 0 .6-.2.6-.7v-.4h.2v-.6l-.1-.1H1.5zM13.3 6c0 .6-.4 1.1-1 1.1H10c-.9 0-1.2-.7-1.2-1.3v-.6H9c0 .7.4 1.3.8 1.5H10.1v-.2l-.3-.9c0-.4.3-.9.7-1l1.8-.1c.7 0 1 .3 1 .8v.7z" fill="#aaa"/>
</svg>
