<svg width="53" height="31" fill="none" xmlns="http://www.w3.org/2000/svg">
  <path d="M0 0v26h48V0H0zm45.4 17.5c-3 .6-5.2 3-5.7 5.9H8.4c-.5-3-2.8-5.4-5.8-5.9V8.4c3-.5 5.3-2.9 5.8-5.8h31.3a7.1 7.1 0 005.7 5.7v9.2z" fill="#aaa"/>
  <path d="M25.3 12c-2-.8-2.7-1.3-2.7-2s.4-1.3 1.9-1.3c1.6 0 2.6.5 3.2.7l.7-2.6c-.8-.4-1.8-.7-3.3-.8V4H23v2.2c-2.4.5-3.8 2.1-3.8 4.2 0 2.2 1.7 3.4 4 4.2 1.7.6 2.4 1.2 2.4 2 0 1-.8 1.5-2.1 1.5-1.5 0-2.8-.5-3.7-1l-.7 2.7c.9.5 2.3 1 3.8 1V23H25v-2.4c2.6-.4 4-2.2 4-4.3 0-2-1-3.4-3.7-4.3z" fill="#aaa"/>
  <path d="M53 31H3v-2.6h47.4V5H53v26z" fill="#aaa"/>
</svg>
