<svg width="32" height="32" fill="none" xmlns="http://www.w3.org/2000/svg">
  <path d="M16.8.6v10c2 0 4-.2 5.9-.6-1-5-3.3-8.8-6-9.4zM15.2 12.2c-2.1 0-4.2-.3-6.1-.6a32.8 32.8 0 000 8.2c2-.3 4-.6 6.1-.6v-7zM15.2 10.6V.6c-2.6.6-4.9 4.4-5.9 9.4 1.9.4 3.9.6 6 .6zM7.5 20.2a32 32 0 010-9h-.3c-2.1-.7-4-1.5-5.6-2.4a16 16 0 000 13.8 21.1 21.1 0 016-2.4zM24.5 11.2a32 32 0 010 9h.3c2.1.7 4 1.5 5.6 2.4a16 16 0 000-13.8 20.3 20.3 0 01-6 2.4zM15.2 30.8v-10c-2 0-4 .2-5.9.6 1 5 3.3 8.8 6 9.4zM7.8 21.8h-.2c-2 .6-3.8 1.3-5.2 2.2a16 16 0 0010.4 7.4c-2.3-1.7-4.1-5.2-5-9.6zM7.6 9.6h.2c.9-4.4 2.7-8 5-9.6A16 16 0 002.5 7.4c1.4.9 3.2 1.6 5.2 2.2zM24.4 21.8h-.2c-.9 4.4-2.7 8-5 9.6A16 16 0 0029.6 24c-1.4-.9-3.2-1.7-5.2-2.2zM16.8 20.8v10c2.6-.6 4.9-4.4 5.9-9.4-1.9-.4-4-.6-6-.6zM24.2 9.6h.2c2-.6 3.8-1.3 5.2-2.2A16 16 0 0019.2 0c2.3 1.7 4.1 5.2 5 9.6zM23 11.6c-2 .4-4 .6-6.2.6v7c2.1 0 4.2.2 6.1.6a32.8 32.8 0 000-8.2z" fill="#aaa"/>
</svg>
