<svg width="32" height="32" fill="none" xmlns="http://www.w3.org/2000/svg">
  <path d="M2.7 0H.1v31.6h2.6V0zM18.1 20.5c3.8 0 7-3 7-6.8s-3.2-6.8-7-6.8-6.9 3-6.9 6.8 3.1 6.8 7 6.8zM14 10.7c.8-.9 2.2-.9 3 0l1.1 1.1 1-1c1-1 2.3-1 3.2 0 .8.8.8 2.3 0 3.2L18 18.4 14 14c-.9-.9-.9-2.4 0-3.3zM3.8 19.3a16.8 16.8 0 017.7-1.2c-.5-.8-1-1.7-1.2-2.7h-.2c-2.6 0-5 .8-6.3 1.4v2.5zM10.8 10.7c.3-.9.9-1.7 1.5-2.4-.7-.2-1.4-.2-2.2-.3-2.6 0-5 .8-6.3 1.4V12c1.4-.6 3.9-1.3 6.4-1.2h.6zM20 21.4l1.4.3c1.9.3 5.7.2 10.5-3v-2.3a18.8 18.8 0 01-8 2.7 8 8 0 01-4 2.3zM3.8 5.7v2.6c1.4-.6 3.9-1.4 6.4-1.3 1 0 2 .2 3 .5A8 8 0 0116 6a12.5 12.5 0 00-12.2-.4zM3.8 15.6c1.4-.6 3.9-1.3 6.4-1.3a7.8 7.8 0 01.2-2.6h-.3c-2.6 0-5 .8-6.3 1.4v2.5zM24.8 18c1.7-.3 4.3-1 7.1-2.9v-2.4a22.2 22.2 0 01-6 2.4c-.1 1-.5 2-1 2.9z" fill="#aaa"/>
  <path d="M21.2 22.7a13 13 0 01-3.7-1.2 8 8 0 01-4.8-2c-.9-.3-1.7-.4-2.6-.4-2.6 0-5 .8-6.3 1.3v3.4c1.3-.7 3.6-1.6 6.4-1.6 4.8.1 6.8 3 11.1 3.7 2.3.3 5.8 0 10.6-3.2V20a17.1 17.1 0 01-10.7 2.7zM21.3 3.7C17 3.1 15 .1 10.2.1 7.4 0 5.2.9 3.8 1.6v3c1.4-.6 3.9-1.3 6.4-1.3 2.8 0 4.6 1 6.5 2l1.1.5h.3a8 8 0 014.3 1.3c1.5 0 5.2-.2 9.5-3V.6C27.1 3.8 23.6 4 21.3 3.7zM26 13.7v.3c1.5-.4 3.8-1.2 6-2.6V9a21 21 0 01-6.2 2.5c.2.7.3 1.4.3 2.2zM25.4 10.5c1.5-.3 4-1 6.5-2.7V5.3a18 18 0 01-8.2 2.8c.7.7 1.3 1.5 1.7 2.4z" fill="#aaa"/>
</svg>
