<svg width="35" height="37" fill="none" xmlns="http://www.w3.org/2000/svg">
  <path d="M32.1 29l-1.5-.2.1-.2h-1.2v-.4h-1.3l.1-.4H27l.2-.4-1.4.2.2-.4-1.5.3.3-.4-1.4.4V27l1.4-.4-.2-.4 1.6-.6-.4-.5 1.8-.9-.6-.2 1.7-1-.5-.2 1.5-1.1-.4-.3 1.4-1.3-.4-.1 1.3-1.4-.3-.2 1.2-1.2-.2-.1 1.3-1.5v-.1l1.5-2-2 1.4-1.6 1.1-.1-.2-1.3 1-.1-.3-1.4 1.2-.1-.5-1.4 1.4-.2-.5-1.2 1.4V19l-1.4 1.7V20L23 21.7l-.4-.5L22 23l-.3-.4-.7 1.7-.4-.3-.3 1-.5-.2 1.4-1.9h-.8l1.3-2-.9-.2 1-2H21l.8-2.6-.8.5.6-2.6-.8.4.4-2.4-.8.2V9.6l-.6.3V7.6H19v-2h-.5l-.2-2.5H18L17.5 0 17 3l-.3.1-.2 2.5H16v2h-.6l-.1 2.3-.7-.3v2.5L14 12l.4 2.4-.8-.4.6 2.6-.8-.5.8 2.5h-.9l1 2.1-.8.1 1.3 2-.8.1 1.4 2-.5.2-.3-1.1-.4.3-.7-1.7-.3.4-.8-1.7-.4.5-1-1.8-.1.7L9.5 19l-.1.6-1.2-1.4-.2.5-1.4-1.4v.5L5 16.5 5 17l-1.3-1.1v.2L2 14.8 2 15l-2-1.3 1.6 1.9h-.1l1.3 1.6-.2.1 1.2 1.2-.3.2L4.8 20l-.4.1 1.4 1.3-.4.3 1.5 1-.5.2L8 24l-.6.2 1.8 1-.4.4 1.6.6-.2.4 1.4.4v.5l-1.4-.4.3.4-1.5-.3.2.4-1.4-.2.2.4H6.7l.1.3-1.3.1v.3H4.3v.3l-1.4.1v.2l-1.8.2 1.8.3v.1l1.5.2-.1.2h1.2v.4h1.3l-.1.4H8l-.2.4 1.4-.2-.2.4 1.5-.3-.3.4 1.4-.4v.4l1.2-.5v.4l1.2-.6.1.4 1-.8.2.3h-.3l.1.3-.7.3.2.2-.8.4h.3l-.8.6h.2l-.6.6h.2l-.7.7h.2l-.6.7.1.1-.5.6h.1l-.6.7v.1l-.6.9.8-.6.7-.6v.2l.6-.6.1.2.6-.6v.3l.7-.7v.3l.6-.7v.3l.6-.8v.3l.5-.8.1.2.4-.8.2.2.3-.8.1.1.3-.8L17 37h1l-.2-5.7.3.8.1-.1.3.8.2-.2.4.8.1-.2.5.8v-.3l.6.8v-.3l.5.7.1-.3.6.7V35l.7.6v-.2l.6.6v-.2l.7.6 1 .6-.7-.9-.6-.7v-.1l-.4-.6-.5-.7.2-.1-.7-.6.2-.1-.6-.5.2-.1-.8-.5.3-.1-.8-.4.2-.3-.7-.2v-.3h-.2l.1-.3 1 .8.2-.4 1.1.6v-.4l1.3.5v-.4l1.4.4-.3-.4 1.5.3-.2-.4 1.4.2-.2-.4h1.4l-.1-.4h1.3v-.3h1.2v-.3l1.4-.2 1.8-.4-1.8-.2v-.2zM11.9 27h-.2.2zm11.2 0h.2-.2z" fill="#aaa"/>
</svg>
