<svg xmlns="http://www.w3.org/2000/svg" width="70" height="70" viewBox="0 0 37 29">
  <g fill="currentColor">
    <defs>
      <linearGradient id="a" x1="0%" y1="0%" x2="100%" y2="0%">
        <stop offset="0%" stop-color="#f83600"/>
        <stop offset="100%" stop-color="#fe8c00"/>
      </linearGradient>
    </defs>
    <path fill="url(#a)" d="M21.5 13.4A7 7 0 0017.6.8 6.8 6.8 0 0011 6.4l-1.5-.1a6.9 6.9 0 00-3.9 12.6A9.1 9.1 0 00.3 27v4.5c0 .5.4.8.9.8h16.4c.5 0 .8-.3.8-.8V27 27h7.4c.5 0 .9-.3.9-.8v-4.5c0-3.5-2.1-6.7-5.2-8.2zm-4.7 17.3H2v-3.6c0-3.5 2.5-6.6 6-7.2a.8.8 0 000-1.7A5.2 5.2 0 019.4 8a5.2 5.2 0 011.3 10.3.8.8 0 00.1 1.7c3.5.6 6 3.7 6 7.2v3.6zm8.2-5.4h-6.8a9.1 9.1 0 00-5-6.4 7 7 0 003-4.5.8.8 0 000-1.7A7 7 0 0012.5 7a5.2 5.2 0 015.1-4.5A5.2 5.2 0 0119 12.7a.8.8 0 000 1.7c3.5.6 6 3.7 6 7.2v3.7z"/>
  </g>
</svg>
