<svg xmlns="http://www.w3.org/2000/svg" width="30" height="30" viewBox="0 0 37 29"><path d="M21.46 13.397a6.931 6.931 0 003.023-5.722C24.483 3.862 21.4.76 17.607.76c-3.39 0-6.173 2.412-6.756 5.657a6.823 6.823 0 00-1.459-.16c-3.791 0-6.876 3.102-6.876 6.915a6.931 6.931 0 003.024 5.723 9.127 9.127 0 00-5.203 8.24v4.459c0 .467.377.845.841.845h16.43a.843.843 0 00.84-.845v-4.459c0-.064-.005-.128-.007-.193h7.38a.843.843 0 00.842-.846v-4.458a9.128 9.128 0 00-5.203-8.24zm-4.694 17.351H2.02v-3.613c0-3.543 2.508-6.604 5.965-7.276a.845.845 0 00.68-.8.845.845 0 00-.621-.847 5.224 5.224 0 01-3.845-5.04c0-2.88 2.33-5.223 5.194-5.223 2.865 0 5.195 2.343 5.195 5.224a5.223 5.223 0 01-3.845 5.039.845.845 0 00-.622.846.845.845 0 00.68.8c3.457.673 5.966 3.734 5.966 7.277v3.613zm8.215-5.497h-6.732a9.126 9.126 0 00-5.004-6.356 6.928 6.928 0 002.906-4.522l.048-.011a.845.845 0 00.059-1.647l-.012-.004a6.917 6.917 0 00-3.79-5.72 5.17 5.17 0 015.151-4.54c2.864 0 5.194 2.344 5.194 5.225a5.222 5.222 0 01-3.844 5.039.845.845 0 00-.622.847.845.845 0 00.68.8c3.457.672 5.965 3.733 5.965 7.277v3.612z" fill="currentColor"/></svg>