<svg xmlns="http://www.w3.org/2000/svg" width="30" height="30" viewBox="0 0 33 28"><path fill-rule="evenodd" clip-rule="evenodd" d="M28.505.602a.752.752 0 01.013.14v1.987h3.486c.05.001.237.009.4.152.2.176.207.417.208.457v18.37c-.002.36-.04 2.367-1.672 3.947-1.548 1.5-3.427 1.545-3.816 1.545H5.485c-.355 0-2.401-.035-3.984-1.704C.04 23.956-.001 22.106 0 21.708V.608C0 .559.007.37.154.205A.628.628 0 01.608 0h27.148a.747.747 0 01.042 0h.1a.653.653 0 01.451.215.644.644 0 01.156.387zm-1.47 3.611h-.012V1.484H1.483v20.224c-.001.38.076 1.696 1.093 2.767 1.094 1.152 2.503 1.241 2.91 1.241h21.638c.379 0 1.708-.083 2.785-1.127 1.129-1.093 1.22-2.484 1.22-2.884V4.213h-2.611v17.758a.742.742 0 11-1.482 0V4.213zm-13.864.26c.42 0 .762.341.762.762v7.133c0 .42-.341.762-.761.762H5.223a.762.762 0 01-.761-.762V5.235c0-.421.34-.761.761-.761h7.947zm-7.225 7.173h6.504V5.957H5.946v5.689zm17.378-5.689H16.15a.742.742 0 010-1.483h7.173a.741.741 0 010 1.483zm0 3.586H16.15a.742.742 0 010-1.483h7.173a.741.741 0 010 1.483zm0 3.587H16.15a.742.742 0 010-1.484h7.173a.741.741 0 010 1.484zm0 3.586H5.204a.741.741 0 010-1.484h18.12a.741.741 0 010 1.484zm0 3.586H5.204a.741.741 0 010-1.484h18.12a.741.741 0 010 1.484z" fill="currentColor"/></svg>