<svg xmlns="http://www.w3.org/2000/svg" width="80" height="80" viewBox="0 0 100 125"><g fill="currentColor"><defs><linearGradient id="a" x1="0%" y1="0%" x2="100%" y2="0%"><stop offset="0%" stop-color="#f83600"/><stop offset="100%" stop-color="#fe8c00"/></linearGradient></defs><path fill="url(#a)" d="M25 969.362v59c0 3.878-3.122 7-7 7h62c3.878 0 7-3.122 7-7v-59zm10 10h20v14H35zm28 0h14a2 2 0 110 4H63a2 2 0 110-4zm-50 26v23c0 2.805 2.195 5 5 5s5-2.195 5-5v-23zm50-16h14a2 2 0 110 4H63a2 2 0 110-4zm-28 12h42a2 2 0 110 4H35a2 2 0 110-4zm0 11h42a2 2 0 110 4H35a2 2 0 110-4zm0 11h42a2 2 0 110 4H35a2 2 0 110-4z" overflow="visible" transform="translate(0 -952.362)"/></g></svg>