<svg height='100px' width='100px'  fill="#ff4813" xmlns:dc="http://purl.org/dc/elements/1.1/" xmlns:cc="http://creativecommons.org/ns#" xmlns:rdf="http://www.w3.org/1999/02/22-rdf-syntax-ns#" xmlns:svg="http://www.w3.org/2000/svg" xmlns="http://www.w3.org/2000/svg" xmlns:sodipodi="http://sodipodi.sourceforge.net/DTD/sodipodi-0.dtd" xmlns:inkscape="http://www.inkscape.org/namespaces/inkscape" version="1.1" x="0px" y="0px" viewBox="0 0 100 100"><g transform="translate(0,-952.36218)"><path style="font-size:medium;font-style:normal;font-variant:normal;font-weight:normal;font-stretch:normal;text-indent:0;text-align:start;text-decoration:none;line-height:normal;letter-spacing:normal;word-spacing:normal;text-transform:none;direction:ltr;block-progression:tb;writing-mode:lr-tb;text-anchor:start;baseline-shift:baseline;opacity:1;color:#000000;fill:#ff4813;fill-opacity:1;stroke:none;stroke-width:8.49234485999999930;marker:none;visibility:visible;display:inline;overflow:visible;enable-background:accumulate;font-family:Sans;-inkscape-font-specification:Sans" d="M 62.40625 14.90625 A 3.0003 3.0003 0 0 0 59.75 17.0625 L 56.34375 28.5625 A 3.0003 3.0003 0 0 0 57.71875 32 L 77.6875 43.5 L 74.71875 58.21875 L 59.25 68.875 A 3.0003 3.0003 0 1 0 62.65625 73.8125 L 79.125 62.46875 A 3.0003 3.0003 0 0 0 80.34375 60.59375 L 83.25 46.46875 A 3.0003 3.0003 0 0 0 85.875 45.5625 L 94.15625 36.875 A 3.0003 3.0003 0 0 0 93.5 32.1875 L 64.125 15.3125 A 3.0003 3.0003 0 0 0 62.40625 14.90625 z M 64.40625 22.40625 L 87.1875 35.5 L 83.15625 39.71875 L 62.75 28 L 64.40625 22.40625 z M 54.1875 34.46875 A 3.0003 3.0003 0 0 0 52.375 35.25 L 46 40.84375 A 3.0003 3.0003 0 0 0 45 42.84375 L 42.28125 76.03125 A 3.0003 3.0003 0 0 0 43.78125 78.875 L 46.09375 80.21875 A 3.0003 3.0003 0 0 0 50.1875 79.125 L 62.46875 57.9375 C 65.47178 58.297467 68.563305 56.904025 70.15625 54.15625 C 72.280176 50.49265 70.991247 45.7402 67.3125 43.625 C 63.633752 41.5098 58.842676 42.77387 56.71875 46.4375 C 55.125805 49.18523 55.440843 52.561811 57.25 54.96875 L 48.84375 69.5 L 50.90625 44.53125 L 56.3125 39.75 A 3.0003 3.0003 0 0 0 54.1875 34.46875 z M 63.3125 48.53125 C 63.642052 48.508725 63.988218 48.594763 64.3125 48.78125 C 65.177251 49.27845 65.436764 50.29505 64.9375 51.15625 C 64.438236 52.01745 63.427251 52.3097 62.5625 51.8125 C 61.697749 51.3153 61.438236 50.2987 61.9375 49.4375 C 62.249541 48.89925 62.763246 48.568792 63.3125 48.53125 z M 28.6875 70.34375 C 26.609607 70.34375 24.857402 71.62715 23.90625 72.84375 C 22.955098 74.06025 22.415766 75.3021 21.90625 76.375 C 21.430927 77.3759 21.009164 78.15755 20.6875 78.59375 C 20.59637 78.47765 20.61657 78.49145 20.5 78.34375 C 19.618666 77.22655 17.45232 75.4375 14.59375 75.4375 L 8 75.4375 A 3.0003 3.0003 0 1 0 8 81.4375 L 14.59375 81.4375 C 15.610913 81.4375 15.25755 81.3985 15.78125 82.0625 C 16.0431 82.3944 16.368084 82.93035 17.0625 83.59375 C 17.756916 84.25705 19.076498 85.0081 20.4375 85 C 22.515438 84.988 24.293062 83.7233 25.28125 82.5 C 26.269438 81.2767 26.82709 80.0255 27.34375 78.9375 C 27.739119 78.1049 28.050241 77.57245 28.34375 77.09375 C 28.535192 77.78075 28.826515 78.64425 29.65625 79.59375 C 30.636528 80.71545 32.369152 81.4375 34.03125 81.4375 A 3.0003662 3.0003662 0 1 0 34.125 75.4375 C 34.10259 75.3755 34.09962 75.45245 34 75.09375 C 33.838462 74.51175 33.718595 73.55355 32.90625 72.40625 C 32.093905 71.25905 30.29653 70.34375 28.6875 70.34375 z " transform="translate(0,952.36218)"></path></g></svg>