<svg xmlns="http://www.w3.org/2000/svg" width="30" height="30" viewBox="0 0 37 29"><path d="M23.962.963a1.2 1.2 0 00-1.063.862l-1.362 4.6a1.2 1.2 0 00.55 1.375l7.988 4.6-1.188 5.888-6.188 4.262a1.2 1.2 0 101.363 1.975l6.587-4.537a1.2 1.2 0 00.488-.75l1.163-5.65a1.2 1.2 0 001.05-.363l3.312-3.475a1.2 1.2 0 00-.262-1.875l-11.75-6.75a1.2 1.2 0 00-.688-.162zm.8 3L33.874 9.2l-1.612 1.688L24.099 6.2l.663-2.237zm-4.088 4.825a1.2 1.2 0 00-.724.312l-2.55 2.238a1.2 1.2 0 00-.4.8l-1.088 13.275a1.2 1.2 0 00.6 1.137l.925.538a1.2 1.2 0 001.637-.438l4.913-8.475c1.201.144 2.438-.413 3.075-1.512.85-1.466.334-3.367-1.138-4.213-1.471-.846-3.387-.34-4.237 1.125a3.107 3.107 0 00.212 3.413L18.538 22.8l.825-9.987 2.163-1.913a1.2 1.2 0 00-.85-2.112zm3.65 5.625a.709.709 0 01.4.1c.346.198.45.605.25.95a.68.68 0 01-.95.262.676.676 0 01-.25-.95.7.7 0 01.55-.362zm-13.85 8.725c-.83 0-1.532.513-1.912 1-.38.486-.596.983-.8 1.412-.19.4-.359.713-.487.888-.037-.047-.029-.041-.075-.1-.353-.447-1.22-1.163-2.363-1.163H2.2a1.203 1.203 0 00-1.218 1.2 1.2 1.2 0 001.218 1.2h2.637c.407 0 .266-.015.475.25.105.133.235.347.513.613.277.265.805.565 1.35.562.83-.005 1.542-.51 1.937-1s.618-.99.825-1.425c.158-.333.283-.546.4-.737.077.274.193.62.525 1 .392.448 1.085.737 1.75.737a1.2 1.2 0 10.037-2.4c-.008-.025-.01.006-.05-.137-.064-.233-.112-.616-.437-1.075-.325-.46-1.044-.825-1.688-.825z" fill="currentColor"/></svg>