<svg width="24" height="33" fill="none" xmlns="http://www.w3.org/2000/svg">
  <path d="M12 11c2.8 0 5-2.5 5-5.5S14.8 0 12 0 7 2.5 7 5.5 9.2 11 12 11zM17.3 22l-3.7 2.9 2.8 1.8-3 3.3c-.2.3-.4.7-.4 1.2 0 1 .9 1.8 2 1.8a2 2 0 001.4-.7l4-4.5c.8-1 .8-2-.1-2.9l-3-2.9zM10.6 30l-3-3.3 2.8-1.8L6.7 22l-3 3c-1 .9-1 1.8 0 2.8l3.9 4.5c.3.4.9.7 1.5.7 1 0 1.9-.8 1.9-1.8 0-.5-.2-.9-.4-1.2z" fill="#aaa"/>
  <path d="M22.3 5c-.5 0-.9.2-1.2.5l-3.8 4.2c-.6.6-1.1 1-1.9 1H8.6c-.8 0-1.3-.4-1.9-1L3 5.5c-.3-.3-.7-.5-1.2-.5C.7 5 0 5.8 0 6.8c0 .6.2 1 .5 1.3l6.1 6.7V20h10.8v-5.2L23.5 8c.3-.3.5-.7.5-1.3 0-1-.8-1.8-1.7-1.8z" fill="#aaa"/>
</svg>
