<svg width="72" height="74" viewBox="0 0 72 74" fill="none" xmlns="http://www.w3.org/2000/svg">
<path d="M7.29143 32.2283L16.2033 35.8328C15.1985 38.3072 14.397 40.8556 13.8063 43.454L13.4683 44.9528L26.2445 57.4225L27.781 57.1003C30.4449 56.5241 33.0575 55.7423 35.5943 54.7622L39.2897 63.455C39.3259 63.5412 39.3835 63.6172 39.4573 63.6763C39.5311 63.7353 39.6187 63.7756 39.7124 63.7934C39.8061 63.8113 39.9029 63.8061 39.994 63.7784C40.0852 63.7508 40.1679 63.7014 40.2346 63.6349L45.8199 58.1869C46.7314 57.2979 47.4416 56.2323 47.9048 55.059C48.368 53.8857 48.5737 52.6307 48.5088 51.375L48.3091 47.8754C58.6499 40.4265 69.1137 27.3648 71.964 4.56857C72.0448 3.99702 71.9892 3.41498 71.8016 2.86781C71.6139 2.32065 71.2993 1.82315 70.8821 1.41409C70.465 1.00503 69.9566 0.695457 69.3967 0.509506C68.8368 0.323554 68.2404 0.266247 67.654 0.34205C44.2911 3.14474 30.8925 13.3588 23.256 23.4155L19.6759 23.2357C18.3913 23.1675 17.1064 23.3623 15.9036 23.8076C14.7009 24.2528 13.607 24.9387 12.6923 25.821L7.10704 31.2691C7.02966 31.3332 6.97104 31.4162 6.93712 31.5096C6.90321 31.603 6.8952 31.7035 6.91392 31.8008C6.93264 31.8982 6.97741 31.989 7.04371 32.0641C7.11 32.1392 7.19546 32.1958 7.29143 32.2283ZM43.1233 18.9492C44.0912 18.0083 45.3233 17.3683 46.6639 17.11C48.0045 16.8516 49.3935 16.9866 50.6556 17.4977C51.9176 18.0089 52.9961 18.8733 53.7548 19.9819C54.5135 21.0906 54.9184 22.3936 54.9184 23.7265C54.9184 25.0595 54.5135 26.3625 53.7548 27.4711C52.9961 28.5797 51.9176 29.4442 50.6556 29.9553C49.3935 30.4665 48.0045 30.6014 46.6639 30.3431C45.3233 30.0847 44.0912 29.4447 43.1233 28.5038C42.4787 27.8773 41.9672 27.1327 41.6182 26.3129C41.2693 25.4931 41.0896 24.6142 41.0896 23.7265C41.0896 22.8389 41.2693 21.9599 41.6182 21.1401C41.9672 20.3203 42.4787 19.5758 43.1233 18.9492ZM5.62429 58.4192C4.1454 57.9129 2.55729 57.789 1.0147 58.0595C0.877603 58.0884 0.735223 58.0829 0.600869 58.0436C0.466515 58.0043 0.344573 57.9324 0.246438 57.8347C0.12478 57.7164 0.0433156 57.5646 0.0130826 57.3998C-0.0171504 57.2349 0.00530957 57.0649 0.0774193 56.9129C1.71382 53.4807 6.05452 46.5789 13.9139 52.1543C13.9549 52.1902 13.9878 52.2341 14.0103 52.2831C14.0327 52.3322 14.0444 52.3853 14.0444 52.4391C14.0444 52.4928 14.0327 52.546 14.0103 52.5951C13.9878 52.6441 13.9549 52.688 13.9139 52.7239C12.8617 53.5321 12.0192 54.5706 11.4547 55.7553C10.8901 56.9399 10.6193 58.2376 10.6641 59.5432C10.6698 59.6965 10.7348 59.8419 10.846 59.9504C10.9571 60.0588 11.1062 60.1222 11.2634 60.1278C12.5962 60.18 13.9231 59.9266 15.1373 59.3877C16.3515 58.8489 17.4192 58.0398 18.2546 57.0253C18.2913 56.9814 18.3376 56.9461 18.3901 56.9218C18.4426 56.8975 18.4999 56.8849 18.558 56.8849C18.6161 56.8849 18.6735 56.8975 18.726 56.9218C18.7785 56.9461 18.8247 56.9814 18.8615 57.0253C19.9524 58.2918 22.9563 62.4284 19.6298 66.4226C18.1775 68.1252 16.0967 69.2019 13.837 69.4201C10.6103 69.7573 4.64859 70.784 2.2132 73.4967C2.11543 73.6097 1.98806 73.6947 1.84467 73.7426C1.70128 73.7906 1.54724 73.7996 1.39898 73.7688C1.25073 73.7381 1.11381 73.6686 1.00284 73.5679C0.891866 73.4672 0.810997 73.339 0.768857 73.197C-0.0915991 70.3344 -1.42838 63.9346 5.62429 58.4192Z" fill="#FF4814"/>
</svg>
