<svg width="102" height="127" viewBox="0 0 102 127" fill="none" xmlns="http://www.w3.org/2000/svg">
<g clip-path="url(#clip0)">
<path d="M81.6009 75.1839C81.6009 75.7229 81.386 76.2397 81.0034 76.6208C80.6209 77.0019 80.102 77.2159 79.5609 77.2159H48.9609V81.2799H79.5609C81.1841 81.2799 82.7407 80.6377 83.8884 79.4945C85.0361 78.3512 85.6809 76.8007 85.6809 75.1839V34.5439H81.6009V75.1839Z" fill="black"/>
<path d="M10.2002 85.3443C10.6598 85.3385 11.1045 85.1813 11.465 84.8973L31.0898 69.5354C31.4435 69.2395 31.8927 69.0807 32.3546 69.0883H67.3202C68.9433 69.0883 70.4999 68.4461 71.6477 67.3028C72.7954 66.1596 73.4402 64.6091 73.4402 62.9923V26.4163C73.4402 24.7996 72.7954 23.249 71.6477 22.1058C70.4999 20.9626 68.9433 20.3203 67.3202 20.3203H14.2802C12.657 20.3203 11.1004 20.9626 9.95267 22.1058C8.80494 23.249 8.16016 24.7996 8.16016 26.4163V83.3123C8.1594 83.6932 8.26609 84.0665 8.46808 84.3899C8.67007 84.7132 8.95922 84.9735 9.30256 85.1411C9.58585 85.2657 9.89062 85.3347 10.2002 85.3443ZM12.2402 57.7498V26.4163C12.2402 25.8774 12.4551 25.3605 12.8377 24.9795C13.2202 24.5984 13.7391 24.3843 14.2802 24.3843H67.3202C67.8612 24.3843 68.3801 24.5984 68.7627 24.9795C69.1452 25.3605 69.3602 25.8774 69.3602 26.4163V62.9923C69.3602 63.5312 69.1452 64.0481 68.7627 64.4292C68.3801 64.8102 67.8612 65.0243 67.3202 65.0243H32.3546C30.9779 65.0143 29.6392 65.4731 28.5602 66.3248L12.2402 79.1264V57.7498Z" fill="black"/>
<path d="M24.4804 48.7686C26.7337 48.7686 28.5604 46.9491 28.5604 44.7046C28.5604 42.4601 26.7337 40.6406 24.4804 40.6406C22.2271 40.6406 20.4004 42.4601 20.4004 44.7046C20.4004 46.9491 22.2271 48.7686 24.4804 48.7686Z" fill="black"/>
<path d="M40.8007 48.7686C43.054 48.7686 44.8807 46.9491 44.8807 44.7046C44.8807 42.4601 43.054 40.6406 40.8007 40.6406C38.5474 40.6406 36.7207 42.4601 36.7207 44.7046C36.7207 46.9491 38.5474 48.7686 40.8007 48.7686Z" fill="black"/>
<path d="M57.121 48.7686C59.3743 48.7686 61.201 46.9491 61.201 44.7046C61.201 42.4601 59.3743 40.6406 57.121 40.6406C54.8677 40.6406 53.041 42.4601 53.041 44.7046C53.041 46.9491 54.8677 48.7686 57.121 48.7686Z" fill="black"/>
</g>
<defs>
<clipPath id="clip0">
<rect width="102" height="127" fill="white"/>
</clipPath>
</defs>
</svg>
