<svg width="44" height="21" fill="none" xmlns="http://www.w3.org/2000/svg">
  <path fill-rule="evenodd" clip-rule="evenodd" d="M21.2.3c-4 .9-8.1 2.9-12.4 6.3a26 26 0 00-7.5 2.9C0 13-.4 15.8.6 17.9h2.3c-.3-.4-.4-1-.4-1.6 0-2.4 2-4.4 4.4-4.4 2.4 0 4.4 2 4.4 4.4 0 .6 0 1.2-.2 1.6h22.5a4.5 4.5 0 014.2-6 4.5 4.5 0 014 6h1c1.4-1.8 1.5-3.9.7-6.1-.3-4.6-2-8-5-10v-1A71.5 71.5 0 0021.3.4zm16 2.3c-.3 1.6-.8 2.7-1.3 3.1-8.4 1.8-17 2-25.6 1.3 8-5.4 16.8-7 26.9-4.4zM6.9 8.3C3 9 1.2 10.5 1.3 12.8c1.3-.6 3-2 5.6-4.5z" fill="#aaa"/>
  <path fill-rule="evenodd" clip-rule="evenodd" d="M37.7 12.6c2.2 0 3.8 1.6 3.8 3.7 0 2-1.6 3.8-3.8 3.8-2 0-3.7-1.8-3.7-3.8 0-2.1 1.7-3.7 3.7-3.7zm0 1.3c1.3 0 2.5 1.1 2.5 2.4 0 1.3-1.2 2.3-2.5 2.3s-2.3-1-2.3-2.3c0-1.3 1-2.4 2.3-2.4zM6.9 12.6c2.2 0 3.7 1.6 3.7 3.7 0 2-1.5 3.8-3.7 3.8-2 0-3.7-1.8-3.7-3.8 0-2.1 1.7-3.7 3.7-3.7zm0 1.3c1.3 0 2.4 1.1 2.4 2.4 0 1.3-1.1 2.3-2.4 2.3-1.3 0-2.3-1-2.3-2.3C4.6 15 5.6 14 7 14zM26.4.9h1.1V8h-2l.9-7.1z" fill="#aaa"/>
</svg>
