<svg width="39" height="28" fill="none" xmlns="http://www.w3.org/2000/svg">
  <path d="M32.4 27.9l.1.1h4.6l.2-.1v-6.5h1.3l.1-.1v-6c0-1.5-1.2-2.7-2.7-2.7h-2.8v7.7c0 .6-.3 1.2-.8 1.4v6.2zM34.6 11h.5c1.1 0 2-1 2-2V7.8c0-1.2-.9-2.1-2-2.1h-.5c-1.2 0-2.1 1-2.1 2V9c0 1.2 1 2.1 2 2.1zM30.2 27.9v-7.4h1.6s.2 0 .2-.2v-7c0-1.8-1.5-3.2-3.3-3.2H25.3c.3.7.4 1.3.4 2v7.6c0 .8-.5 1.3-1.2 1.5v6.7l.2.1H30l.1-.1zM27 8.2h.7c1.3 0 2.5-1.1 2.5-2.5V4.5C30.2 3.2 29 2 27.7 2H27a2.5 2.5 0 00-2.5 2.5v1.2c0 1.4 1.1 2.5 2.5 2.5zM5.4 20.3v-7-.7H2.8A2.7 2.7 0 000 15.3v6l.1.1h1.4V28h4.7l.1-.1v-6.2c-.5-.2-.9-.8-.9-1.4zM3.6 11h.5c1.2 0 2.1-1 2.1-2V7.8c0-1.2-1-2.1-2-2.1h-.6c-1.1 0-2 1-2 2V9c0 1.2.9 2.1 2 2.1zM14.2 27.9v-6.7c-.7-.2-1.2-.7-1.2-1.5v-7.6c0-.7.2-1.3.4-2H10a3.2 3.2 0 00-3.2 3.2v7.2h1.7v7.4l.1.1h5.5v-.1zM11.6 2H11a2.5 2.5 0 00-2.4 2.5v1.2c0 1.4 1 2.5 2.4 2.5h.6c1.4 0 2.5-1.1 2.5-2.5V4.5C14.1 3.2 13 2 11.6 2zM14.4 12v7.7l.1.2h1.7v8l.2.1h6v-8.1h1.8s.2 0 .2-.2v-7.6c0-2-1.6-3.5-3.6-3.5h-3c-1.9 0-3.4 1.5-3.4 3.5zM19.7 6.9c1.5 0 2.7-1.3 2.7-2.8V2.8c0-1.6-1.2-2.8-2.7-2.8H19a2.8 2.8 0 00-2.7 2.8V4C16.3 5.6 17.5 7 19 7h.7z" fill="#aaa"/>
</svg>
